<svg width="128" height="128" viewBox="0 0 128 128" xmlns="http://www.w3.org/2000/svg"><title>overwatch</title><g fill="none"><path d="M6.3 0h115.3c3.5 0 6.3 2.8 6.3 6.3v115.3c0 3.5-2.8 6.3-6.3 6.3H6.3c-3.5 0-6.3-2.8-6.3-6.3V6.3C0 2.8 2.8 0 6.3 0z" fill="#43484C"/><path d="M0 6.3V77l27.9 27.9L53 110l36-6 18-24 2-27-5-18v-9L78 0H6.3C2.8 0 0 2.8 0 6.3z" fill="#F3F3F3" opacity=".09"/><path d="M104 26L93 38s11 12 11 25c0 11-5 20-5 20L76 62 66 41v33l21.6 21.4s-8.3 8.2-23.6 8.6c-15.3-.4-23.6-8.6-23.6-8.6L62 74V41L52 62 29 83s-5-9-5-20c0-13 11-25 11-25L24 26C11 40 9 55 9 63s2 23 14 37 27 19 41 19 29-5 41-19 14-29 14-37-2-23-15-37z" fill="#F3F3F3"/><path d="M96 19C80 8.9 67.5 8.7 64 8.9c-3.5-.2-16 0-32 10.1l10 12s9.5-5.7 22-6c12.5.3 22 6 22 6l10-12z" fill="#F99E1A"/></g></svg>